<svg version="1.0" xmlns="http://www.w3.org/2000/svg"
 width="143.000000pt" height="54.000000pt" viewBox="0 0 143.000000 54.000000"
 preserveAspectRatio="xMidYMid meet">

<g transform="translate(0.000000,54.000000) scale(0.100000,-0.100000)"
fill="#000000" stroke="none">
<path d="M978 500 c-111 -19 -235 -68 -270 -106 -28 -32 -39 -71 -27 -101 5
-16 62 -78 126 -139 66 -65 113 -117 109 -123 -4 -6 -2 -11 3 -11 34 0 0 47
-95 135 -138 128 -156 164 -113 219 58 74 195 115 424 125 l160 8 -135 0 c-74
0 -156 -3 -182 -7z"/>
<path d="M1325 489 c17 -6 38 -18 48 -27 9 -8 20 -13 23 -9 9 8 -37 35 -71 41
l-30 6 30 -11z"/>
<path d="M385 411 c-184 -66 -391 -234 -370 -300 11 -37 107 -51 215 -31 32 6
18 7 -50 3 -109 -5 -147 7 -142 46 9 83 286 272 420 288 65 7 75 -9 43 -74
-14 -29 -17 -43 -9 -41 7 3 22 25 32 51 16 38 17 49 6 61 -17 21 -81 19 -145
-3z"/>
<path d="M487 221 c-36 -78 -50 -95 -60 -68 -3 9 -10 9 -28 -2 -24 -14 -24
-14 -5 7 10 12 23 19 27 16 5 -3 9 0 9 5 0 19 -26 12 -48 -12 -30 -32 -28 -37
14 -35 20 1 39 -4 44 -11 6 -10 9 -10 12 -1 4 14 96 22 104 9 9 -15 30 -10 55
12 l24 21 -25 -16 c-28 -18 -50 -21 -50 -6 0 6 6 10 14 10 7 0 19 7 26 15 19
23 -18 20 -55 -5 -31 -20 -65 -27 -65 -12 0 5 10 14 23 21 l22 11 -23 -6 c-20
-5 -21 -3 -12 20 5 15 17 40 25 57 9 17 15 35 13 41 -2 6 -21 -26 -41 -71z"/>
<path d="M965 280 c-4 -11 -16 -21 -28 -21 -16 -1 -18 -2 -5 -6 16 -4 16 -8
-3 -55 -11 -28 -18 -57 -15 -65 6 -16 42 -17 52 -2 5 8 9 7 14 -1 5 -8 15 -10
26 -5 28 12 78 12 86 1 4 -7 19 -1 39 13 17 13 29 19 25 13 -8 -14 8 -23 42
-24 41 -1 56 5 64 25 8 18 38 24 38 7 0 -5 -8 -14 -17 -20 -16 -10 -16 -10 2
-8 12 2 21 12 23 26 4 29 -31 30 -55 2 -24 -28 -46 -26 -37 3 l6 22 -26 -24
c-34 -32 -33 -16 4 66 33 73 34 77 20 68 -6 -4 -22 -29 -35 -56 -17 -32 -32
-49 -44 -49 -10 0 -30 -11 -45 -25 -33 -30 -46 -32 -39 -5 7 27 -5 25 -29 -5
-25 -33 -40 -32 -28 1 16 40 12 42 -16 7 -26 -33 -54 -44 -54 -20 0 6 8 33 17
60 14 38 22 47 42 48 22 2 23 2 5 6 -16 3 -20 9 -17 24 7 25 -4 25 -12 -1z
m175 -108 c0 -5 -9 -17 -20 -27 -16 -14 -20 -15 -20 -4 0 16 19 39 32 39 4 0
8 -4 8 -8z"/>
<path d="M1220 199 c0 -5 5 -7 10 -4 6 3 10 8 10 11 0 2 -4 4 -10 4 -5 0 -10
-5 -10 -11z"/>
<path d="M300 100 c-20 -6 -21 -8 -5 -8 11 0 29 3 40 8 25 11 -1 11 -35 0z"/>
<path d="M772 84 c-31 -22 -27 -41 11 -53 42 -13 133 -24 97 -12 -14 5 -37 9
-51 10 -14 1 -34 7 -44 15 -29 21 -2 49 41 44 18 -2 30 0 28 4 -9 14 -58 9
-82 -8z"/>
</g>
</svg>
